<svg width="43" height="44" viewBox="0 0 43 44" fill="none" xmlns="http://www.w3.org/2000/svg">
<mask id="path-1-outside-1_19_2" maskUnits="userSpaceOnUse" x="-2" y="-2" width="46" height="48" fill="black">
<rect fill="white" x="-2" y="-2" width="46" height="48"/>
<path d="M16.528 43.896C14.9067 43.896 13.392 43.7893 11.984 43.576C10.576 43.4053 9.27467 43.064 8.08 42.552C7.48267 42.296 6.97067 42.104 6.544 41.976C6.11733 41.8053 5.84 41.72 5.712 41.72C5.41333 41.72 5.11467 41.784 4.816 41.912C4.51733 41.9973 4.26133 42.104 4.048 42.232C3.74933 42.4027 3.45067 42.5733 3.152 42.744C2.896 42.9147 2.66133 43 2.448 43C2.192 43 1.872 42.8293 1.488 42.488C1.104 42.104 0.912 41.7627 0.912 41.464C0.912 41.1227 1.168 40.4187 1.68 39.352C2.14933 38.2853 2.66133 37.0053 3.216 35.512C3.77067 33.976 4.15467 32.3973 4.368 30.776C4.624 29.2827 5.22133 28.536 6.16 28.536C6.75733 28.536 7.12 28.8987 7.248 29.624C7.41867 30.3067 7.504 31.3947 7.504 32.888C7.504 34.2107 7.78133 35.512 8.336 36.792C8.89067 38.072 9.744 39.1173 10.896 39.928C12.0907 40.7387 13.584 41.144 15.376 41.144C17.8933 41.144 19.8133 40.4827 21.136 39.16C22.5013 37.8373 23.184 36.2587 23.184 34.424C23.184 33.4853 23.0133 32.632 22.672 31.864C22.3307 31.0533 21.6907 30.136 20.752 29.112C19.8133 28.088 18.4267 26.7653 16.592 25.144C14.5013 23.2667 12.944 21.4747 11.92 19.768C10.9387 18.0187 10.448 15.8427 10.448 13.24C10.448 10.8507 11.1093 8.696 12.432 6.776C13.7973 4.856 15.6533 3.34133 18 2.232C20.3467 1.08 23.0347 0.503998 26.064 0.503998C27.6853 0.503998 29.1573 0.653332 30.48 0.952C31.8027 1.208 32.9333 1.48533 33.872 1.784C34.7253 2.04 35.408 2.25333 35.92 2.424C36.432 2.552 36.9653 2.616 37.52 2.616C38.16 2.616 38.7147 2.488 39.184 2.232C39.5253 2.01867 39.8453 1.848 40.144 1.72C40.4853 1.592 40.8053 1.528 41.104 1.528C41.5733 1.528 41.8507 1.69867 41.936 2.04C42.0213 2.33867 41.9147 2.68 41.616 3.064C41.0613 3.78933 40.464 4.77066 39.824 6.008C39.2267 7.24533 38.672 8.54667 38.16 9.912C37.648 11.2347 37.2213 12.4507 36.88 13.56C36.752 13.9867 36.5813 14.3493 36.368 14.648C36.1547 14.904 35.8133 15.032 35.344 15.032C34.9173 15.032 34.5973 14.8187 34.384 14.392C34.2133 13.9227 34.128 13.1973 34.128 12.216C34.128 9.44267 33.424 7.224 32.016 5.56C30.6507 3.896 28.8373 3.064 26.576 3.064C25.04 3.064 23.7813 3.384 22.8 4.024C21.8187 4.664 21.0933 5.47466 20.624 6.456C20.1547 7.43733 19.92 8.44 19.92 9.464C19.92 10.4453 20.0693 11.3413 20.368 12.152C20.7093 12.92 21.328 13.7733 22.224 14.712C23.12 15.608 24.4427 16.7813 26.192 18.232C28.8373 20.408 30.608 22.4133 31.504 24.248C32.4 26.0827 32.848 28.088 32.848 30.264C32.848 32.44 32.1867 34.5733 30.864 36.664C29.584 38.7547 27.728 40.4827 25.296 41.848C22.864 43.2133 19.9413 43.896 16.528 43.896Z"/>
</mask>
<path d="M16.528 43.896C14.9067 43.896 13.392 43.7893 11.984 43.576C10.576 43.4053 9.27467 43.064 8.08 42.552C7.48267 42.296 6.97067 42.104 6.544 41.976C6.11733 41.8053 5.84 41.72 5.712 41.72C5.41333 41.72 5.11467 41.784 4.816 41.912C4.51733 41.9973 4.26133 42.104 4.048 42.232C3.74933 42.4027 3.45067 42.5733 3.152 42.744C2.896 42.9147 2.66133 43 2.448 43C2.192 43 1.872 42.8293 1.488 42.488C1.104 42.104 0.912 41.7627 0.912 41.464C0.912 41.1227 1.168 40.4187 1.68 39.352C2.14933 38.2853 2.66133 37.0053 3.216 35.512C3.77067 33.976 4.15467 32.3973 4.368 30.776C4.624 29.2827 5.22133 28.536 6.16 28.536C6.75733 28.536 7.12 28.8987 7.248 29.624C7.41867 30.3067 7.504 31.3947 7.504 32.888C7.504 34.2107 7.78133 35.512 8.336 36.792C8.89067 38.072 9.744 39.1173 10.896 39.928C12.0907 40.7387 13.584 41.144 15.376 41.144C17.8933 41.144 19.8133 40.4827 21.136 39.16C22.5013 37.8373 23.184 36.2587 23.184 34.424C23.184 33.4853 23.0133 32.632 22.672 31.864C22.3307 31.0533 21.6907 30.136 20.752 29.112C19.8133 28.088 18.4267 26.7653 16.592 25.144C14.5013 23.2667 12.944 21.4747 11.92 19.768C10.9387 18.0187 10.448 15.8427 10.448 13.24C10.448 10.8507 11.1093 8.696 12.432 6.776C13.7973 4.856 15.6533 3.34133 18 2.232C20.3467 1.08 23.0347 0.503998 26.064 0.503998C27.6853 0.503998 29.1573 0.653332 30.48 0.952C31.8027 1.208 32.9333 1.48533 33.872 1.784C34.7253 2.04 35.408 2.25333 35.92 2.424C36.432 2.552 36.9653 2.616 37.52 2.616C38.16 2.616 38.7147 2.488 39.184 2.232C39.5253 2.01867 39.8453 1.848 40.144 1.72C40.4853 1.592 40.8053 1.528 41.104 1.528C41.5733 1.528 41.8507 1.69867 41.936 2.04C42.0213 2.33867 41.9147 2.68 41.616 3.064C41.0613 3.78933 40.464 4.77066 39.824 6.008C39.2267 7.24533 38.672 8.54667 38.16 9.912C37.648 11.2347 37.2213 12.4507 36.88 13.56C36.752 13.9867 36.5813 14.3493 36.368 14.648C36.1547 14.904 35.8133 15.032 35.344 15.032C34.9173 15.032 34.5973 14.8187 34.384 14.392C34.2133 13.9227 34.128 13.1973 34.128 12.216C34.128 9.44267 33.424 7.224 32.016 5.56C30.6507 3.896 28.8373 3.064 26.576 3.064C25.04 3.064 23.7813 3.384 22.8 4.024C21.8187 4.664 21.0933 5.47466 20.624 6.456C20.1547 7.43733 19.92 8.44 19.92 9.464C19.92 10.4453 20.0693 11.3413 20.368 12.152C20.7093 12.92 21.328 13.7733 22.224 14.712C23.12 15.608 24.4427 16.7813 26.192 18.232C28.8373 20.408 30.608 22.4133 31.504 24.248C32.4 26.0827 32.848 28.088 32.848 30.264C32.848 32.44 32.1867 34.5733 30.864 36.664C29.584 38.7547 27.728 40.4827 25.296 41.848C22.864 43.2133 19.9413 43.896 16.528 43.896Z" fill="#E3E5E8"/>
<path d="M11.984 43.576L12.2836 41.5986L12.2542 41.5941L12.2247 41.5905L11.984 43.576ZM8.08 42.552L8.86784 40.7137L8.86784 40.7137L8.08 42.552ZM6.544 41.976L5.80122 43.833L5.88395 43.866L5.9693 43.8917L6.544 41.976ZM4.816 41.912L5.36544 43.835L5.48733 43.8002L5.60384 43.7503L4.816 41.912ZM4.048 42.232L5.04028 43.9685L5.05875 43.9579L5.07699 43.947L4.048 42.232ZM3.152 42.744L2.15972 41.0075L2.09991 41.0417L2.0426 41.0799L3.152 42.744ZM1.488 42.488L0.0737864 43.9022L0.115345 43.9438L0.159272 43.9828L1.488 42.488ZM1.68 39.352L3.48305 40.2175L3.49733 40.1877L3.51063 40.1575L1.68 39.352ZM3.216 35.512L5.09085 36.2084L5.09402 36.1998L5.09711 36.1913L3.216 35.512ZM4.368 30.776L2.39676 30.4381L2.39017 30.4765L2.38509 30.5151L4.368 30.776ZM7.248 29.624L5.27843 29.9716L5.29066 30.0408L5.30772 30.1091L7.248 29.624ZM8.336 36.792L10.1711 35.9968L10.1711 35.9968L8.336 36.792ZM10.896 39.928L9.74501 41.5636L9.75892 41.5734L9.773 41.583L10.896 39.928ZM21.136 39.16L19.7444 37.7235L19.733 37.7346L19.7218 37.7458L21.136 39.16ZM22.672 31.864L20.8287 32.6401L20.8364 32.6583L20.8444 32.6763L22.672 31.864ZM20.752 29.112L19.2777 30.4634L19.2777 30.4634L20.752 29.112ZM16.592 25.144L15.2558 26.6321L15.2617 26.6374L15.2676 26.6427L16.592 25.144ZM11.92 19.768L10.1757 20.7465L10.19 20.772L10.205 20.797L11.92 19.768ZM12.432 6.776L10.8021 5.61695L10.7934 5.6291L10.785 5.64139L12.432 6.776ZM18 2.232L18.8548 4.04014L18.8681 4.03384L18.8813 4.02733L18 2.232ZM30.48 0.952L30.0395 2.90288L30.0696 2.90969L30.1 2.91556L30.48 0.952ZM33.872 1.784L33.2656 3.68985L33.2814 3.69488L33.2973 3.69965L33.872 1.784ZM35.92 2.424L35.2875 4.32137L35.3604 4.34566L35.4349 4.36429L35.92 2.424ZM39.184 2.232L40.1417 3.98779L40.1937 3.95941L40.244 3.928L39.184 2.232ZM40.144 1.72L39.4418 -0.152664L39.3986 -0.136464L39.3562 -0.118289L40.144 1.72ZM41.936 2.04L39.9957 2.52506L40.0038 2.5574L40.013 2.58945L41.936 2.04ZM41.616 3.064L40.0373 1.83612L40.0323 1.84259L40.0273 1.8491L41.616 3.064ZM39.824 6.008L38.0476 5.08916L38.0349 5.11366L38.0229 5.1385L39.824 6.008ZM38.16 9.912L40.0251 10.634L40.0289 10.6241L40.0327 10.6142L38.16 9.912ZM36.88 13.56L34.9684 12.9718L34.9643 12.9853L36.88 13.56ZM36.368 14.648L37.9044 15.9284L37.9521 15.8711L37.9955 15.8105L36.368 14.648ZM34.384 14.392L32.5044 15.0755L32.5437 15.1836L32.5951 15.2864L34.384 14.392ZM32.016 5.56L30.4699 6.82863L30.4795 6.84033L30.4892 6.85188L32.016 5.56ZM20.368 12.152L18.4913 12.8434L18.5139 12.9046L18.5404 12.9643L20.368 12.152ZM22.224 14.712L20.7773 16.0929L20.7933 16.1098L20.8098 16.1262L22.224 14.712ZM26.192 18.232L24.9153 19.7715L24.9215 19.7766L26.192 18.232ZM30.864 36.664L29.1738 35.5947L29.166 35.6071L29.1583 35.6197L30.864 36.664ZM25.296 41.848L24.3169 40.104L24.3169 40.104L25.296 41.848ZM16.528 41.896C14.9935 41.896 13.58 41.795 12.2836 41.5986L11.6844 45.5534C13.204 45.7837 14.8198 45.896 16.528 45.896V41.896ZM12.2247 41.5905C10.9881 41.4406 9.87291 41.1445 8.86784 40.7137L7.29216 44.3903C8.67643 44.9835 10.1639 45.37 11.7433 45.5615L12.2247 41.5905ZM8.86784 40.7137C8.22942 40.4401 7.64239 40.2175 7.1187 40.0603L5.9693 43.8917C6.29894 43.9905 6.73591 44.1519 7.29216 44.3903L8.86784 40.7137ZM7.28678 40.119C7.04824 40.0236 6.81607 39.9376 6.60417 39.8724C6.45406 39.8263 6.10194 39.72 5.712 39.72V43.72C5.62136 43.72 5.55144 43.7128 5.51106 43.7076C5.46865 43.7021 5.43852 43.6962 5.42398 43.6931C5.39706 43.6874 5.39547 43.6856 5.42783 43.6956C5.45751 43.7047 5.5035 43.7199 5.56851 43.7436C5.63278 43.767 5.70999 43.7965 5.80122 43.833L7.28678 40.119ZM5.712 39.72C5.11944 39.72 4.55369 39.8485 4.02816 40.0737L5.60384 43.7503C5.67564 43.7195 5.70723 43.72 5.712 43.72V39.72ZM4.26656 39.989C3.83939 40.111 3.41414 40.2799 3.01901 40.517L5.07699 43.947C5.10852 43.9281 5.19528 43.8837 5.36544 43.835L4.26656 39.989ZM3.05572 40.4955C2.75706 40.6662 2.45839 40.8368 2.15972 41.0075L4.14428 44.4805C4.44294 44.3098 4.74161 44.1392 5.04028 43.9685L3.05572 40.4955ZM2.0426 41.0799C2.01807 41.0963 2.03787 41.0792 2.10051 41.0564C2.16566 41.0327 2.28557 41 2.448 41V45C3.19491 45 3.81525 44.7055 4.2614 44.4081L2.0426 41.0799ZM2.448 41C2.60629 41 2.73081 41.0263 2.81218 41.0504C2.89265 41.0742 2.94187 41.0991 2.95718 41.1073C2.98094 41.12 2.93534 41.0986 2.81673 40.9932L0.159272 43.9828C0.595162 44.3703 1.40194 45 2.448 45V41ZM2.90221 41.0738C2.79334 40.9649 2.7788 40.9273 2.79915 40.9635C2.82069 41.0018 2.912 41.1792 2.912 41.464H-1.088C-1.088 42.5879 -0.406332 43.4221 0.0737864 43.9022L2.90221 41.0738ZM2.912 41.464C2.912 41.6034 2.88955 41.669 2.90259 41.6157C2.91217 41.5766 2.93554 41.4956 2.98359 41.3635C3.08009 41.0981 3.24127 40.7212 3.48305 40.2175L-0.123046 38.4865C-0.393275 39.0495 -0.616094 39.5579 -0.775587 39.9965C-0.911057 40.3691 -1.088 40.9155 -1.088 41.464H2.912ZM3.51063 40.1575C4.0003 39.0446 4.52709 37.7262 5.09085 36.2084L1.34115 34.8156C0.79558 36.2845 0.298371 37.5261 -0.15063 38.5465L3.51063 40.1575ZM5.09711 36.1913C5.70073 34.5197 6.11882 32.8008 6.35091 31.0369L2.38509 30.5151C2.19051 31.9939 1.8406 33.4323 1.33489 34.8327L5.09711 36.1913ZM6.33924 31.1139C6.3868 30.8365 6.44264 30.6401 6.49298 30.508C6.54362 30.3751 6.57812 30.3349 6.56974 30.3454C6.55594 30.3626 6.49988 30.4235 6.39439 30.4747C6.28779 30.5266 6.1978 30.536 6.16 30.536V26.536C5.07 26.536 4.11622 27.0092 3.44626 27.8466C2.84729 28.5953 2.55177 29.5338 2.39676 30.4381L6.33924 31.1139ZM6.16 30.536C6.10684 30.536 5.99686 30.5277 5.8572 30.4749C5.71177 30.42 5.57593 30.3324 5.46579 30.2222C5.25554 30.012 5.25592 29.844 5.27843 29.9716L9.21757 29.2764C9.11208 28.6787 8.86713 27.9667 8.29421 27.3938C7.67598 26.7756 6.89475 26.536 6.16 26.536V30.536ZM5.30772 30.1091C5.41509 30.5386 5.504 31.4181 5.504 32.888H9.504C9.504 31.3712 9.42224 30.0748 9.18829 29.1389L5.30772 30.1091ZM5.504 32.888C5.504 34.4991 5.84351 36.0702 6.50089 37.5872L10.1711 35.9968C9.71916 34.9538 9.504 33.9223 9.504 32.888H5.504ZM6.50089 37.5872C7.20342 39.2084 8.29509 40.5433 9.74501 41.5636L12.047 38.2924C11.1929 37.6914 10.5779 36.9356 10.1711 35.9968L6.50089 37.5872ZM9.773 41.583C11.3712 42.6674 13.2807 43.144 15.376 43.144V39.144C13.8873 39.144 12.8101 38.8099 12.019 38.273L9.773 41.583ZM15.376 43.144C18.2349 43.144 20.7372 42.3872 22.5502 40.5742L19.7218 37.7458C18.8894 38.5782 17.5518 39.144 15.376 39.144V43.144ZM22.5276 40.5965C24.266 38.9124 25.184 36.8217 25.184 34.424H21.184C21.184 35.6957 20.7366 36.7623 19.7444 37.7235L22.5276 40.5965ZM25.184 34.424C25.184 33.2383 24.9672 32.1038 24.4996 31.0517L20.8444 32.6763C21.0594 33.1602 21.184 33.7323 21.184 34.424H25.184ZM24.5153 31.0879C24.0486 29.9795 23.2409 28.8674 22.2263 27.7605L19.2777 30.4634C20.1404 31.4046 20.6127 32.1272 20.8287 32.6401L24.5153 31.0879ZM22.2263 27.7606C21.2177 26.6603 19.7705 25.2839 17.9164 23.6453L15.2676 26.6427C17.0828 28.2468 18.409 29.5157 19.2777 30.4634L22.2263 27.7606ZM17.9283 23.6559C15.9301 21.8616 14.5238 20.2203 13.635 18.739L10.205 20.797C11.3642 22.729 13.0726 24.6717 15.2558 26.6321L17.9283 23.6559ZM13.6643 18.7895C12.8933 17.4151 12.448 15.5993 12.448 13.24H8.448C8.448 16.0861 8.98406 18.6222 10.1757 20.7465L13.6643 18.7895ZM12.448 13.24C12.448 11.2452 12.9922 9.48819 14.079 7.91061L10.785 5.64139C9.22643 7.90381 8.448 10.4561 8.448 13.24H12.448ZM14.0619 7.93505C15.209 6.32194 16.7855 5.01832 18.8548 4.04014L17.1452 0.423854C14.5211 1.66434 12.3857 3.39005 10.8021 5.61695L14.0619 7.93505ZM18.8813 4.02733C20.9133 3.02983 23.2917 2.504 26.064 2.504V-1.496C22.7776 -1.496 19.78 -0.869836 17.1187 0.436663L18.8813 4.02733ZM26.064 2.504C27.565 2.504 28.8862 2.64247 30.0395 2.90288L30.9205 -0.998882C29.4284 -1.33581 27.8057 -1.496 26.064 -1.496V2.504ZM30.1 2.91556C31.3718 3.16172 32.4225 3.4216 33.2656 3.68985L34.4784 -0.121856C33.4441 -0.450937 32.2336 -0.745721 30.86 -1.01156L30.1 2.91556ZM33.2973 3.69965C34.142 3.95305 34.803 4.15984 35.2875 4.32137L36.5525 0.526633C36.013 0.346829 35.3087 0.126951 34.4467 -0.131655L33.2973 3.69965ZM35.4349 4.36429C36.1135 4.53391 36.8101 4.616 37.52 4.616V0.615997C37.1205 0.615997 36.7506 0.570083 36.4051 0.483713L35.4349 4.36429ZM37.52 4.616C38.4289 4.616 39.3258 4.43282 40.1417 3.98779L38.2263 0.476207C38.1035 0.543174 37.8911 0.615997 37.52 0.615997V4.616ZM40.244 3.928C40.518 3.75674 40.7465 3.63771 40.9318 3.55828L39.3562 -0.118289C38.9442 0.058286 38.5327 0.280593 38.124 0.536L40.244 3.928ZM40.8462 3.59266C41.011 3.53088 41.0915 3.528 41.104 3.528V-0.472C40.5191 -0.472 39.9597 -0.34688 39.4418 -0.152664L40.8462 3.59266ZM41.104 3.528C41.1036 3.528 41.0556 3.52829 40.9744 3.50972C40.8913 3.49074 40.762 3.44927 40.6158 3.35932C40.2714 3.1474 40.0686 2.81656 39.9957 2.52506L43.8763 1.55493C43.7181 0.9221 43.3339 0.335261 42.7122 -0.0473204C42.1486 -0.394141 41.5544 -0.472 41.104 -0.472V3.528ZM40.013 2.58945C39.9329 2.30929 39.9661 2.0674 40.011 1.92345C40.0497 1.7996 40.0891 1.76949 40.0373 1.83612L43.1947 4.29188C43.6583 3.69585 44.201 2.68747 43.859 1.49055L40.013 2.58945ZM40.0273 1.8491C39.3748 2.70231 38.7165 3.79589 38.0476 5.08916L41.6004 6.92684C42.2115 5.74544 42.7478 4.87635 43.2047 4.2789L40.0273 1.8491ZM38.0229 5.1385C37.3976 6.43368 36.8194 7.79104 36.2873 9.20975L40.0327 10.6142C40.5246 9.30229 41.0557 8.05699 41.6251 6.8775L38.0229 5.1385ZM36.2949 9.19001C35.7694 10.5475 35.3263 11.8088 34.9684 12.9718L38.7916 14.1482C39.1164 13.0926 39.5266 11.9219 40.0251 10.634L36.2949 9.19001ZM34.9643 12.9853C34.8864 13.245 34.8022 13.3991 34.7405 13.4855L37.9955 15.8105C38.3604 15.2995 38.6176 14.7283 38.7957 14.1347L34.9643 12.9853ZM34.8316 13.3676C34.9674 13.2046 35.127 13.1094 35.2498 13.0633C35.3578 13.0228 35.4045 13.032 35.344 13.032V17.032C36.154 17.032 37.1745 16.8043 37.9044 15.9284L34.8316 13.3676ZM35.344 13.032C35.4806 13.032 35.6894 13.0719 35.8934 13.2079C36.0849 13.3355 36.1609 13.4736 36.1729 13.4976L32.5951 15.2864C32.8204 15.737 33.1631 16.1951 33.6746 16.5361C34.1986 16.8854 34.7807 17.032 35.344 17.032V13.032ZM36.2636 13.7085C36.2169 13.5802 36.128 13.1444 36.128 12.216H32.128C32.128 13.2502 32.2097 14.2651 32.5044 15.0755L36.2636 13.7085ZM36.128 12.216C36.128 9.10163 35.332 6.38261 33.5428 4.26811L30.4892 6.85188C31.516 8.06539 32.128 9.7837 32.128 12.216H36.128ZM33.5621 4.29136C31.7954 2.1381 29.4014 1.064 26.576 1.064V5.064C28.2733 5.064 29.506 5.6539 30.4699 6.82863L33.5621 4.29136ZM26.576 1.064C24.7707 1.064 23.1007 1.44017 21.7075 2.34878L23.8925 5.69922C24.462 5.32782 25.3093 5.064 26.576 5.064V1.064ZM21.7075 2.34878C20.4435 3.17313 19.4595 4.25534 18.8197 5.59309L22.4283 7.31891C22.7271 6.69399 23.1939 6.15487 23.8925 5.69922L21.7075 2.34878ZM18.8197 5.59309C18.2298 6.82668 17.92 8.1229 17.92 9.464H21.92C21.92 8.75709 22.0796 8.04798 22.4283 7.31891L18.8197 5.59309ZM17.92 9.464C17.92 10.6496 18.1008 11.7834 18.4913 12.8434L22.2447 11.4606C22.0379 10.8992 21.92 10.2411 21.92 9.464H17.92ZM18.5404 12.9643C19.0115 14.0243 19.7994 15.0685 20.7773 16.0929L23.6707 13.331C22.8566 12.4782 22.4072 11.8157 22.1956 11.3397L18.5404 12.9643ZM20.8098 16.1262C21.7711 17.0875 23.1493 18.307 24.9153 19.7715L27.4687 16.6925C25.7361 15.2557 24.4689 14.1285 23.6382 13.2978L20.8098 16.1262ZM24.9215 19.7766C27.4759 21.8778 28.9941 23.6661 29.7069 25.1257L33.3011 23.3703C32.2219 21.1605 30.1987 18.9382 27.4625 16.6874L24.9215 19.7766ZM29.7069 25.1257C30.4607 26.6692 30.848 28.3717 30.848 30.264H34.848C34.848 27.8043 34.3393 25.4961 33.3011 23.3703L29.7069 25.1257ZM30.848 30.264C30.848 32.0115 30.3225 33.779 29.1738 35.5947L32.5542 37.7333C34.0508 35.3676 34.848 32.8685 34.848 30.264H30.848ZM29.1583 35.6197C28.0801 37.3807 26.4926 38.8826 24.3169 40.104L26.2751 43.592C28.9634 42.0827 31.0879 40.1286 32.5697 37.7083L29.1583 35.6197ZM24.3169 40.104C22.244 41.2678 19.6746 41.896 16.528 41.896V45.896C20.2081 45.896 23.484 45.1589 26.2751 43.592L24.3169 40.104Z" fill="#F97316" mask="url(#path-1-outside-1_19_2)"/>
</svg>
